<svg xmlns="http://www.w3.org/2000/svg" width="900" height="650" viewBox="0 0 900 650">
<rect width="100%" height="100%" fill="white"/>
<text x="450.0" y="28" text-anchor="middle" font-family="sans-serif" font-size="20">MB1b_DyadicLAMP average power spectrum</text>
<line x1="90" y1="570" x2="870" y2="570" stroke="black"/>
<line x1="90" y1="55" x2="90" y2="570" stroke="black"/>
<line x1="90.0" y1="570" x2="90.0" y2="575" stroke="black"/>
<text x="90.0" y="595" text-anchor="middle" font-family="sans-serif" font-size="12">10^-5</text>
<line x1="256.36874940906114" y1="570" x2="256.36874940906114" y2="575" stroke="black"/>
<text x="256.36874940906114" y="595" text-anchor="middle" font-family="sans-serif" font-size="12">10^-4</text>
<line x1="422.7374988181222" y1="570" x2="422.7374988181222" y2="575" stroke="black"/>
<text x="422.7374988181222" y="595" text-anchor="middle" font-family="sans-serif" font-size="12">10^-3</text>
<line x1="589.1062482271834" y1="570" x2="589.1062482271834" y2="575" stroke="black"/>
<text x="589.1062482271834" y="595" text-anchor="middle" font-family="sans-serif" font-size="12">10^-2</text>
<line x1="755.4749976362444" y1="570" x2="755.4749976362444" y2="575" stroke="black"/>
<text x="755.4749976362444" y="595" text-anchor="middle" font-family="sans-serif" font-size="12">10^-1</text>
<line x1="85" y1="536.1392350280925" x2="90" y2="536.1392350280925" stroke="black"/>
<text x="80" y="540.1392350280925" text-anchor="end" font-family="sans-serif" font-size="12">10^-1</text>
<line x1="85" y1="372.65396299123313" x2="90" y2="372.65396299123313" stroke="black"/>
<text x="80" y="376.65396299123313" text-anchor="end" font-family="sans-serif" font-size="12">10^0</text>
<line x1="85" y1="209.16869095437374" x2="90" y2="209.16869095437374" stroke="black"/>
<text x="80" y="213.16869095437374" text-anchor="end" font-family="sans-serif" font-size="12">10^1</text>
<polyline fill="none" stroke="#555555" stroke-width="2" stroke-dasharray="4 4" points="90.0,55.0 140.08,84.53 169.38,101.8 190.16,114.06 206.29,123.56 219.46,131.33 230.6,137.9 240.25,143.59 248.76,148.6 256.37,153.09 263.26,157.15 269.54,160.86 275.33,164.27 280.68,167.43 285.66,170.36 290.33,173.11 294.71,175.7 298.84,178.13 302.74,180.43 306.45,182.62 309.98,184.7 313.34,186.68 316.55,188.57 319.62,190.39 322.57,192.13 325.41,193.8 329.45,196.18 333.3,198.45 336.93,200.59 340.41,202.64 343.71,204.59 347.9,207.06 351.86,209.39 354.7,211.07 358.3,213.19 362.59,215.72 365.84,217.63 368.95,219.47 372.65,221.65 376.18,223.73 379.53,225.71 383.37,227.97 387.02,230.12 390.49,232.17 393.8,234.12 397.47,236.29 400.98,238.35 404.31,240.32 407.95,242.46 411.41,244.51 415.12,246.69 418.65,248.77 422.0,250.75 425.56,252.85 429.29,255.04 432.83,257.13 436.2,259.12 440.0,261.36 443.61,263.49 447.04,265.51 450.57,267.59 454.16,269.71 457.81,271.86 461.28,273.91 464.8,275.98 468.34,278.07 471.9,280.17 475.47,282.27 479.04,284.38 482.6,286.47 486.14,288.56 489.8,290.72 493.42,292.86 496.87,294.89 500.4,296.97 504.01,299.1 507.56,301.19 511.15,303.31 514.68,305.39 518.23,307.49 521.8,309.59 525.29,311.65 528.87,313.76 532.44,315.86 535.99,317.96 539.52,320.04 543.02,322.1 546.62,324.22 550.18,326.32 553.74,328.42 557.3,330.52 560.86,332.62 564.4,334.71 567.93,336.79 571.52,338.9 575.07,341.0 578.62,343.09 582.17,345.18 585.7,347.26 589.28,349.38 592.83,351.47 596.38,353.56 599.95,355.67 603.5,357.76 607.05,359.85 610.59,361.94 614.15,364.04 617.72,366.14 621.25,368.23 624.8,370.32 628.37,372.42 631.93,374.52 635.47,376.61 639.02,378.7 642.57,380.79 646.13,382.9 649.69,384.99 653.24,387.08 656.79,389.18 660.34,391.27 663.9,393.37 667.46,395.47 671.01,397.56 674.56,399.66 678.11,401.75 681.67,403.85 685.22,405.94 688.77,408.04 692.32,410.13 695.88,412.23 699.43,414.32 702.98,416.42 706.54,418.51 710.09,420.61 713.64,422.7 717.2,424.8 720.76,426.9 724.31,428.99 727.86,431.08 731.42,433.18 734.97,435.27 738.52,437.37 742.07,439.46 745.63,441.56 749.18,443.66 752.74,445.75 756.29,447.84 759.84,449.94 763.4,452.04 766.95,454.13 770.5,456.22 774.05,458.32 777.61,460.41 781.16,462.51 784.72,464.6 788.27,466.7 791.82,468.8 795.38,470.89 798.93,472.99 802.48,475.08 806.04,477.18 809.59,479.27 813.14,481.37 816.7,483.46 820.25,485.56 823.8,487.65 827.36,489.75 830.91,491.84 834.46,493.94 838.02,496.03 841.57,498.13 845.13,500.22 848.68,502.32 852.23,504.41 855.79,506.51 859.34,508.6 862.89,510.7 866.45,512.79 870.0,514.89"/>
<line x1="600" y1="73" x2="640" y2="73" stroke="#555555" stroke-width="2" stroke-dasharray="4 4"/>
<text x="648" y="77" font-family="sans-serif" font-size="12">nominal spectrum beta=0.4</text>
<polyline fill="none" stroke="#1f77b4" stroke-width="2" points="90.0,55.0 140.08,89.01 169.38,97.37 190.16,100.19 206.29,122.55 219.46,128.57 230.6,131.22 240.25,152.14 248.76,155.94 256.37,166.67 263.26,171.09 269.54,173.67 275.33,167.86 280.68,176.98 285.66,186.58 290.33,174.12 294.71,182.34 298.84,197.79 302.74,182.21 306.45,201.08 309.98,191.58 313.34,197.94 316.55,199.72 319.62,196.62 322.57,193.73 325.41,204.86 329.45,203.25 333.3,210.4 336.93,214.65 340.41,214.57 343.71,225.45 347.9,227.33 351.86,233.01 354.7,223.0 358.3,233.57 362.59,239.36 365.84,235.17 368.95,240.19 372.65,238.74 376.18,241.73 379.53,251.03 383.37,250.01 387.02,248.41 390.49,257.34 393.8,258.7 397.47,260.1 400.98,262.91 404.31,261.56 407.95,274.64 411.41,271.9 415.12,266.81 418.65,271.87 422.0,275.36 425.56,279.41 429.29,283.56 432.83,284.71 436.2,286.21 440.0,287.94 443.61,295.06 447.04,298.39 450.57,302.03 454.16,304.47 457.81,300.64 461.28,307.33 464.8,305.97 468.34,311.26 471.9,316.48 475.47,314.16 479.04,318.47 482.6,319.7 486.14,324.93 489.8,329.47 493.42,332.1 496.87,334.11 500.4,335.91 504.01,337.76 507.56,341.24 511.15,342.47 514.68,346.01 518.23,346.41 521.8,353.36 525.29,353.34 528.87,353.78 532.44,358.36 535.99,358.36 539.52,363.25 543.02,368.55 546.62,370.57 550.18,374.48 553.74,376.09 557.3,376.89 560.86,381.04 564.4,382.67 567.93,384.55 571.52,384.27 575.07,387.05 578.62,389.81 582.17,395.24 585.7,397.2 589.28,400.29 592.83,402.57 596.38,407.01 599.95,410.13 603.5,410.39 607.05,415.22 610.59,416.32 614.15,418.17 617.72,420.3 621.25,421.13 624.8,421.97 628.37,425.62 631.93,428.6 635.47,433.16 639.02,437.84 642.57,440.29 646.13,442.52 649.69,443.92 653.24,448.23 656.79,449.2 660.34,451.64 663.9,454.28 667.46,456.69 671.01,457.15 674.56,457.31 678.11,460.44 681.67,464.9 685.22,467.39 688.77,471.01 692.32,473.99 695.88,476.71 699.43,479.53 702.98,480.41 706.54,483.84 710.09,485.8 713.64,487.71 717.2,489.18 720.76,489.35 724.31,490.84 727.86,492.78 731.42,494.95 734.97,498.92 738.52,501.64 742.07,505.45 745.63,508.56 749.18,510.79 752.74,513.18 756.29,514.5 759.84,517.89 763.4,519.18 766.95,520.06 770.5,520.55 774.05,520.47 777.61,521.85 781.16,523.46 784.72,526.32 788.27,528.98 791.82,531.87 795.38,535.26 798.93,537.43 802.48,539.1 806.04,541.09 809.59,543.69 813.14,545.72 816.7,547.03 820.25,547.75 823.8,546.1 827.36,544.98 830.91,545.41 834.46,546.46 838.02,548.3 841.57,549.72 845.13,552.76 848.68,555.99 852.23,557.96 855.79,559.05 859.34,562.0 862.89,564.73 866.45,567.75 870.0,570.0"/>
<line x1="256.38" y1="55" x2="256.38" y2="570" stroke="#d62728" stroke-width="2" stroke-dasharray="7 5"/>
<line x1="600" y1="91" x2="640" y2="91" stroke="#d62728" stroke-width="2" stroke-dasharray="7 5"/>
<text x="648" y="95" font-family="sans-serif" font-size="12">finite-sample limit n/10</text>
<line x1="90.0" y1="55" x2="90.0" y2="570" stroke="#9467bd" stroke-width="2" stroke-dasharray="7 5"/>
<line x1="600" y1="109" x2="640" y2="109" stroke="#9467bd" stroke-width="2" stroke-dasharray="7 5"/>
<text x="648" y="113" font-family="sans-serif" font-size="12">generator memory limit</text>
<text x="450.0" y="625" text-anchor="middle" font-family="sans-serif" font-size="16">frequency</text>
<text x="25" y="325.0" transform="rotate(-90 25 325.0)" text-anchor="middle" font-family="sans-serif" font-size="16">average periodogram</text>
</svg>
