<svg xmlns="http://www.w3.org/2000/svg" width="900" height="650" viewBox="0 0 900 650">
<rect width="100%" height="100%" fill="white"/>
<text x="450.0" y="28" text-anchor="middle" font-family="sans-serif" font-size="20">MB1c_CalibratedAdditiveMarkov average autocorrelation</text>
<line x1="90" y1="570" x2="870" y2="570" stroke="black"/>
<line x1="90" y1="55" x2="90" y2="570" stroke="black"/>
<line x1="90.0" y1="570" x2="90.0" y2="575" stroke="black"/>
<text x="90.0" y="595" text-anchor="middle" font-family="sans-serif" font-size="12">10^0</text>
<line x1="256.28868699675434" y1="570" x2="256.28868699675434" y2="575" stroke="black"/>
<text x="256.28868699675434" y="595" text-anchor="middle" font-family="sans-serif" font-size="12">10^1</text>
<line x1="422.57737399350873" y1="570" x2="422.57737399350873" y2="575" stroke="black"/>
<text x="422.57737399350873" y="595" text-anchor="middle" font-family="sans-serif" font-size="12">10^2</text>
<line x1="588.8660609902631" y1="570" x2="588.8660609902631" y2="575" stroke="black"/>
<text x="588.8660609902631" y="595" text-anchor="middle" font-family="sans-serif" font-size="12">10^3</text>
<line x1="755.1547479870175" y1="570" x2="755.1547479870175" y2="575" stroke="black"/>
<text x="755.1547479870175" y="595" text-anchor="middle" font-family="sans-serif" font-size="12">10^4</text>
<line x1="85" y1="564.2010864327469" x2="90" y2="564.2010864327469" stroke="black"/>
<text x="80" y="568.2010864327469" text-anchor="end" font-family="sans-serif" font-size="12">10^-4</text>
<line x1="85" y1="362.1551018201295" x2="90" y2="362.1551018201295" stroke="black"/>
<text x="80" y="366.1551018201295" text-anchor="end" font-family="sans-serif" font-size="12">10^-3</text>
<line x1="85" y1="160.10911720751216" x2="90" y2="160.10911720751216" stroke="black"/>
<text x="80" y="164.10911720751216" text-anchor="end" font-family="sans-serif" font-size="12">10^-2</text>
<polyline fill="none" stroke="#555555" stroke-width="2" stroke-dasharray="4 4" points="90.0,55.0 140.06,79.33 169.34,93.56 190.12,103.66 206.23,111.49 219.4,117.89 230.53,123.3 240.17,127.99 248.68,132.12 256.29,135.82 263.17,139.16 269.46,142.22 275.24,145.03 280.59,147.63 285.57,150.05 290.23,152.32 294.61,154.44 298.74,156.45 302.64,158.35 306.35,160.15 309.87,161.86 313.23,163.49 316.44,165.05 319.51,166.55 322.46,167.98 325.29,169.36 329.33,171.32 333.18,173.19 336.81,174.95 340.29,176.64 343.59,178.25 347.78,180.28 351.74,182.21 354.58,183.59 358.17,185.34 362.46,187.42 365.7,189.0 368.81,190.51 372.51,192.3 376.04,194.02 379.39,195.65 383.23,197.51 386.87,199.28 390.34,200.97 393.65,202.58 397.32,204.36 400.83,206.07 404.16,207.69 407.8,209.45 411.26,211.14 414.96,212.93 418.49,214.65 421.84,216.28 425.4,218.01 429.12,219.82 432.67,221.54 436.04,223.18 439.83,225.02 443.44,226.78 446.87,228.44 450.39,230.16 453.99,231.9 457.63,233.67 461.1,235.36 464.62,237.07 468.16,238.79 471.72,240.52 475.29,242.25 478.85,243.99 482.41,245.71 485.95,247.43 489.6,249.21 493.22,250.97 496.67,252.65 500.2,254.36 503.81,256.12 507.36,257.84 510.95,259.59 514.47,261.3 518.02,263.03 521.59,264.76 525.08,266.46 528.66,268.19 532.23,269.93 535.78,271.65 539.31,273.37 542.8,275.07 546.4,276.82 549.95,278.54 553.52,280.27 557.08,282.01 560.63,283.73 564.18,285.46 567.7,287.17 571.28,288.91 574.83,290.64 578.39,292.36 581.93,294.08 585.46,295.8 589.04,297.54 592.57,299.25 596.12,300.98 599.75,302.75 603.25,304.45 606.79,306.17 610.29,307.87 613.87,309.61 617.45,311.35 621.06,313.1 624.49,314.77 628.27,316.61 631.55,318.2 635.07,319.91 638.7,321.67 642.0,323.28 645.97,325.21 649.51,326.93 653.15,328.7 656.25,330.21 660.16,332.1 663.39,333.68 666.99,335.42 671.09,337.41 674.45,339.05 677.89,340.72 681.42,342.44 685.14,344.24 688.41,345.83 691.96,347.56 695.72,349.39 699.16,351.06 702.78,352.82 706.37,354.56 709.77,356.22 713.28,357.92 716.96,359.71 720.7,361.53 724.19,363.22 727.57,364.87 731.13,366.6 734.36,368.17 737.92,369.9 741.98,371.87 745.5,373.58 748.89,375.23 752.25,376.86 756.15,378.76 759.5,380.38 762.58,381.88 766.51,383.79 770.64,385.8 773.24,387.06 777.64,389.2 780.76,390.72 784.56,392.56 787.95,394.21 791.13,395.76 795.22,397.75 798.55,399.36 801.93,401.01 805.65,402.82 809.53,404.7 813.33,406.55 815.83,407.76 819.62,409.61 823.68,411.58 826.91,413.15 830.46,414.87 834.48,416.83 837.65,418.37 841.17,420.08 844.56,421.73 848.1,423.44 851.86,425.27 854.87,426.74 858.75,428.62 862.48,430.44 866.28,432.28 870.0,434.09"/>
<line x1="600" y1="73" x2="640" y2="73" stroke="#555555" stroke-width="2" stroke-dasharray="4 4"/>
<text x="648" y="77" font-family="sans-serif" font-size="12">nominal ACF beta=0.4</text>
<polyline fill="none" stroke="#1f77b4" stroke-width="2" points="90.0,55.0 140.06,67.74 169.34,74.09 190.12,77.45 206.23,81.86 219.4,83.53 230.53,89.13 240.17,90.19 248.68,90.23 256.29,91.82 263.17,91.81 269.46,96.01 275.24,96.07 280.59,96.45 285.57,97.31 290.23,96.16 294.61,96.51 298.74,97.27 302.64,99.42 306.35,100.34 309.87,99.17 313.23,99.7 316.44,102.22 319.51,101.67 322.46,101.65 325.29,101.94 329.33,101.96 333.18,104.43 336.81,102.42 340.29,105.87 343.59,105.67 347.78,105.79 351.74,104.97 354.58,105.2 358.17,106.56 362.46,105.78 365.7,108.1 368.81,108.08 372.51,107.26 376.04,108.66 379.39,108.61 383.23,110.0 386.87,109.25 390.34,108.98 393.65,111.08 397.32,111.37 400.83,109.56 404.16,112.17 407.8,111.05 411.26,112.95 414.96,114.45 418.49,111.76 421.84,115.43 425.4,113.14 429.12,114.48 432.67,116.21 436.04,115.52 439.83,117.28 443.44,117.98 446.87,118.41 450.39,119.39 453.99,119.09 457.63,120.08 461.1,121.0 464.62,122.62 468.16,123.4 471.72,127.12 475.29,142.95 478.85,146.64 482.41,148.96 485.95,152.21 489.6,155.04 493.22,158.66 496.67,159.99 500.2,164.88 503.81,169.86 507.36,174.51 510.95,177.39 514.47,183.55 518.02,189.77 521.59,198.35 525.08,201.1 528.66,210.75 532.23,215.99 535.78,223.91 539.31,227.97 542.8,236.76 546.4,247.89 549.95,257.69 553.52,265.78 557.08,275.38 560.63,286.24 564.18,303.35 567.7,310.95 571.28,324.28 574.83,335.23 578.39,352.23 581.93,360.46 585.46,374.39 589.04,383.69 592.57,402.83 596.12,419.82 599.75,429.31 603.25,426.23 606.79,455.13 610.29,438.42 613.87,453.72 617.45,461.45 621.06,473.6 624.49,475.48 628.27,505.13 631.55,492.7 635.07,509.15 638.7,505.32 642.0,522.48 645.97,513.64 649.51,511.08 653.15,501.53 656.25,524.04 660.16,570.0 663.39,545.66 666.99,554.61 671.09,550.91 674.45,550.59 677.89,541.9 681.42,527.76 685.14,518.89 688.41,501.51 691.96,500.16 695.72,513.13 699.16,489.81 702.78,497.44 706.37,481.56 709.77,493.2 713.28,495.02 716.96,522.31 720.7,505.68 724.19,482.24 727.57,479.8 731.13,485.01 734.36,486.08 737.92,517.54 741.98,510.89 745.5,528.99 748.89,508.5 752.25,514.55 756.15,520.82 759.5,500.03 762.58,509.07 766.51,524.09 770.64,495.62 773.24,509.23 777.64,511.81 780.76,496.41 784.56,490.49 787.95,485.55 791.13,499.39 795.22,504.87 798.55,506.51 801.93,498.33 805.65,517.14 809.53,505.86 813.33,482.28 815.83,468.2 819.62,506.28 823.68,527.4 826.91,485.28 830.46,503.06 834.48,478.93 837.65,466.59 841.17,452.8 844.56,492.65 848.1,492.57 851.86,495.23 854.87,482.6 858.75,495.78 862.48,472.02 866.28,480.21 870.0,467.39"/>
<line x1="755.15" y1="55" x2="755.15" y2="570" stroke="#d62728" stroke-width="2" stroke-dasharray="7 5"/>
<line x1="600" y1="91" x2="640" y2="91" stroke="#d62728" stroke-width="2" stroke-dasharray="7 5"/>
<text x="648" y="95" font-family="sans-serif" font-size="12">finite-sample limit n/10</text>
<line x1="472.64" y1="55" x2="472.64" y2="570" stroke="#9467bd" stroke-width="2" stroke-dasharray="7 5"/>
<line x1="600" y1="109" x2="640" y2="109" stroke="#9467bd" stroke-width="2" stroke-dasharray="7 5"/>
<text x="648" y="113" font-family="sans-serif" font-size="12">generator memory limit</text>
<text x="450.0" y="625" text-anchor="middle" font-family="sans-serif" font-size="16">lag</text>
<text x="25" y="325.0" transform="rotate(-90 25 325.0)" text-anchor="middle" font-family="sans-serif" font-size="16">positive average autocorrelation</text>
</svg>
