<svg xmlns="http://www.w3.org/2000/svg" width="900" height="650" viewBox="0 0 900 650">
<rect width="100%" height="100%" fill="white"/>
<text x="450.0" y="28" text-anchor="middle" font-family="sans-serif" font-size="20">MB2_OnOffMarkov average power spectrum</text>
<line x1="90" y1="570" x2="870" y2="570" stroke="black"/>
<line x1="90" y1="55" x2="90" y2="570" stroke="black"/>
<line x1="90.0" y1="570" x2="90.0" y2="575" stroke="black"/>
<text x="90.0" y="595" text-anchor="middle" font-family="sans-serif" font-size="12">10^-5</text>
<line x1="256.36874940906114" y1="570" x2="256.36874940906114" y2="575" stroke="black"/>
<text x="256.36874940906114" y="595" text-anchor="middle" font-family="sans-serif" font-size="12">10^-4</text>
<line x1="422.7374988181222" y1="570" x2="422.7374988181222" y2="575" stroke="black"/>
<text x="422.7374988181222" y="595" text-anchor="middle" font-family="sans-serif" font-size="12">10^-3</text>
<line x1="589.1062482271834" y1="570" x2="589.1062482271834" y2="575" stroke="black"/>
<text x="589.1062482271834" y="595" text-anchor="middle" font-family="sans-serif" font-size="12">10^-2</text>
<line x1="755.4749976362444" y1="570" x2="755.4749976362444" y2="575" stroke="black"/>
<text x="755.4749976362444" y="595" text-anchor="middle" font-family="sans-serif" font-size="12">10^-1</text>
<line x1="85" y1="517.6629584195753" x2="90" y2="517.6629584195753" stroke="black"/>
<text x="80" y="521.6629584195753" text-anchor="end" font-family="sans-serif" font-size="12">10^-1</text>
<line x1="85" y1="367.7511283155791" x2="90" y2="367.7511283155791" stroke="black"/>
<text x="80" y="371.7511283155791" text-anchor="end" font-family="sans-serif" font-size="12">10^0</text>
<line x1="85" y1="217.83929821158284" x2="90" y2="217.83929821158284" stroke="black"/>
<text x="80" y="221.83929821158284" text-anchor="end" font-family="sans-serif" font-size="12">10^1</text>
<line x1="85" y1="67.9274681075866" x2="90" y2="67.9274681075866" stroke="black"/>
<text x="80" y="71.9274681075866" text-anchor="end" font-family="sans-serif" font-size="12">10^2</text>
<polyline fill="none" stroke="#555555" stroke-width="2" stroke-dasharray="4 4" points="90.0,55.0 140.08,82.08 169.38,97.92 190.16,109.15 206.29,117.87 219.46,124.99 230.6,131.01 240.25,136.23 248.76,140.83 256.37,144.95 263.26,148.67 269.54,152.07 275.33,155.2 280.68,158.09 285.66,160.79 290.33,163.31 294.71,165.68 298.84,167.91 302.74,170.02 306.45,172.02 309.98,173.93 313.34,175.75 316.55,177.48 319.62,179.15 322.57,180.74 325.41,182.27 329.45,184.46 333.3,186.54 336.93,188.5 340.41,190.38 343.71,192.17 347.9,194.43 351.86,196.58 354.7,198.11 358.3,200.06 362.59,202.37 365.84,204.13 368.95,205.81 372.65,207.81 376.18,209.72 379.53,211.54 383.37,213.61 387.02,215.58 390.49,217.46 393.8,219.25 397.47,221.23 400.98,223.13 404.31,224.93 407.95,226.9 411.41,228.77 415.12,230.77 418.65,232.68 422.0,234.5 425.56,236.42 429.29,238.43 432.83,240.35 436.2,242.17 440.0,244.23 443.61,246.18 447.04,248.03 450.57,249.94 454.16,251.88 457.81,253.86 461.28,255.73 464.8,257.63 468.34,259.55 471.9,261.48 475.47,263.41 479.04,265.33 482.6,267.26 486.14,269.17 489.8,271.15 493.42,273.11 496.87,274.97 500.4,276.88 504.01,278.83 507.56,280.75 511.15,282.7 514.68,284.6 518.23,286.52 521.8,288.45 525.29,290.34 528.87,292.28 532.44,294.21 535.99,296.13 539.52,298.03 543.02,299.93 546.62,301.87 550.18,303.79 553.74,305.72 557.3,307.65 560.86,309.57 564.4,311.49 567.93,313.39 571.52,315.33 575.07,317.25 578.62,319.17 582.17,321.09 585.7,323.0 589.28,324.93 592.83,326.85 596.38,328.77 599.95,330.7 603.5,332.62 607.05,334.54 610.59,336.46 614.15,338.38 617.72,340.31 621.25,342.22 624.8,344.14 628.37,346.07 631.93,347.99 635.47,349.91 639.02,351.83 642.57,353.75 646.13,355.67 649.69,357.59 653.24,359.51 656.79,361.44 660.34,363.35 663.9,365.28 667.46,367.2 671.01,369.12 674.56,371.04 678.11,372.96 681.67,374.89 685.22,376.81 688.77,378.73 692.32,380.64 695.88,382.57 699.43,384.49 702.98,386.41 706.54,388.33 710.09,390.25 713.64,392.17 717.2,394.1 720.76,396.02 724.31,397.94 727.86,399.86 731.42,401.78 734.97,403.7 738.52,405.62 742.07,407.54 745.63,409.47 749.18,411.39 752.74,413.31 756.29,415.23 759.84,417.15 763.4,419.07 766.95,420.99 770.5,422.91 774.05,424.83 777.61,426.75 781.16,428.68 784.72,430.6 788.27,432.52 791.82,434.44 795.38,436.36 798.93,438.28 802.48,440.2 806.04,442.12 809.59,444.05 813.14,445.97 816.7,447.89 820.25,449.81 823.8,451.73 827.36,453.65 830.91,455.57 834.46,457.49 838.02,459.42 841.57,461.34 845.13,463.26 848.68,465.18 852.23,467.1 855.79,469.02 859.34,470.94 862.89,472.86 866.45,474.79 870.0,476.71"/>
<line x1="600" y1="73" x2="640" y2="73" stroke="#555555" stroke-width="2" stroke-dasharray="4 4"/>
<text x="648" y="77" font-family="sans-serif" font-size="12">nominal spectrum beta=0.4</text>
<polyline fill="none" stroke="#1f77b4" stroke-width="2" points="90.0,55.0 140.08,77.47 169.38,91.93 190.16,112.04 206.29,113.48 219.46,119.55 230.6,132.15 240.25,140.69 248.76,145.86 256.37,149.7 263.26,156.76 269.54,161.61 275.33,162.16 280.68,160.87 285.66,165.91 290.33,171.99 294.71,179.02 298.84,165.13 302.74,176.36 306.45,178.18 309.98,183.53 313.34,179.67 316.55,187.56 319.62,187.68 322.57,188.79 325.41,196.61 329.45,191.93 333.3,182.23 336.93,194.96 340.41,203.62 343.71,199.72 347.9,205.77 351.86,207.57 354.7,215.15 358.3,208.1 362.59,215.27 365.84,222.71 368.95,215.98 372.65,221.71 376.18,228.55 379.53,230.41 383.37,228.28 387.02,234.17 390.49,227.77 393.8,240.31 397.47,234.28 400.98,240.91 404.31,236.12 407.95,238.49 411.41,242.15 415.12,244.89 418.65,250.51 422.0,253.29 425.56,252.99 429.29,252.47 432.83,255.99 436.2,261.85 440.0,267.27 443.61,264.19 447.04,267.9 450.57,270.87 454.16,272.1 457.81,272.01 461.28,274.81 464.8,274.51 468.34,282.74 471.9,284.52 475.47,285.81 479.04,288.97 482.6,288.09 486.14,297.74 489.8,294.38 493.42,297.3 496.87,298.76 500.4,302.77 504.01,303.08 507.56,305.95 511.15,311.09 514.68,312.2 518.23,314.85 521.8,314.55 525.29,321.69 528.87,323.23 532.44,326.57 535.99,329.0 539.52,334.26 543.02,338.68 546.62,342.95 550.18,344.75 553.74,350.44 557.3,355.05 560.86,360.7 564.4,366.82 567.93,372.09 571.52,378.92 575.07,385.6 578.62,392.3 582.17,399.87 585.7,403.65 589.28,414.13 592.83,420.48 596.38,426.25 599.95,431.4 603.5,436.87 607.05,442.37 610.59,445.86 614.15,449.61 617.72,451.98 621.25,452.95 624.8,455.89 628.37,455.7 631.93,457.86 635.47,458.45 639.02,459.12 642.57,458.29 646.13,459.3 649.69,459.36 653.24,460.51 656.79,461.66 660.34,463.54 663.9,464.98 667.46,467.01 671.01,468.98 674.56,469.5 678.11,470.96 681.67,472.08 685.22,472.35 688.77,472.93 692.32,473.35 695.88,473.21 699.43,474.23 702.98,475.49 706.54,477.6 710.09,478.28 713.64,478.56 717.2,479.73 720.76,479.17 724.31,481.02 727.86,481.87 731.42,482.89 734.97,483.63 738.52,485.1 742.07,487.29 745.63,488.18 749.18,489.85 752.74,490.73 756.29,492.26 759.84,493.59 763.4,495.6 766.95,497.19 770.5,499.21 774.05,501.69 777.61,503.61 781.16,506.01 784.72,508.2 788.27,510.78 791.82,513.41 795.38,516.0 798.93,518.99 802.48,522.04 806.04,525.09 809.59,527.72 813.14,531.09 816.7,533.94 820.25,537.08 823.8,540.37 827.36,543.48 830.91,546.62 834.46,549.58 838.02,552.47 841.57,555.36 845.13,557.76 848.68,560.83 852.23,563.0 855.79,564.94 859.34,567.23 862.89,568.63 866.45,569.51 870.0,570.0"/>
<line x1="256.38" y1="55" x2="256.38" y2="570" stroke="#d62728" stroke-width="2" stroke-dasharray="7 5"/>
<line x1="600" y1="91" x2="640" y2="91" stroke="#d62728" stroke-width="2" stroke-dasharray="7 5"/>
<text x="648" y="95" font-family="sans-serif" font-size="12">finite-sample limit n/10</text>
<text x="450.0" y="625" text-anchor="middle" font-family="sans-serif" font-size="16">frequency</text>
<text x="25" y="325.0" transform="rotate(-90 25 325.0)" text-anchor="middle" font-family="sans-serif" font-size="16">average periodogram</text>
</svg>
