<svg xmlns="http://www.w3.org/2000/svg" width="900" height="650" viewBox="0 0 900 650">
<rect width="100%" height="100%" fill="white"/>
<text x="450.0" y="28" text-anchor="middle" font-family="sans-serif" font-size="20">MB2_OnOffMarkov average power spectrum</text>
<line x1="90" y1="570" x2="870" y2="570" stroke="black"/>
<line x1="90" y1="55" x2="90" y2="570" stroke="black"/>
<line x1="90.0" y1="570" x2="90.0" y2="575" stroke="black"/>
<text x="90.0" y="595" text-anchor="middle" font-family="sans-serif" font-size="12">10^-5</text>
<line x1="256.36874940906114" y1="570" x2="256.36874940906114" y2="575" stroke="black"/>
<text x="256.36874940906114" y="595" text-anchor="middle" font-family="sans-serif" font-size="12">10^-4</text>
<line x1="422.7374988181222" y1="570" x2="422.7374988181222" y2="575" stroke="black"/>
<text x="422.7374988181222" y="595" text-anchor="middle" font-family="sans-serif" font-size="12">10^-3</text>
<line x1="589.1062482271834" y1="570" x2="589.1062482271834" y2="575" stroke="black"/>
<text x="589.1062482271834" y="595" text-anchor="middle" font-family="sans-serif" font-size="12">10^-2</text>
<line x1="755.4749976362444" y1="570" x2="755.4749976362444" y2="575" stroke="black"/>
<text x="755.4749976362444" y="595" text-anchor="middle" font-family="sans-serif" font-size="12">10^-1</text>
<line x1="85" y1="513.958649879292" x2="90" y2="513.958649879292" stroke="black"/>
<text x="80" y="517.958649879292" text-anchor="end" font-family="sans-serif" font-size="12">10^-1</text>
<line x1="85" y1="353.709588659842" x2="90" y2="353.709588659842" stroke="black"/>
<text x="80" y="357.709588659842" text-anchor="end" font-family="sans-serif" font-size="12">10^0</text>
<line x1="85" y1="193.4605274403919" x2="90" y2="193.4605274403919" stroke="black"/>
<text x="80" y="197.4605274403919" text-anchor="end" font-family="sans-serif" font-size="12">10^1</text>
<polyline fill="none" stroke="#1f77b4" stroke-width="2" points="90.0,55.0 140.08,59.88 169.38,90.59 190.16,90.68 206.29,88.77 219.46,100.56 230.6,93.87 240.25,105.84 248.76,116.94 256.37,121.56 263.26,117.08 269.54,117.04 275.33,128.65 280.68,135.27 285.66,128.98 290.33,126.48 294.71,139.61 298.84,140.66 302.74,143.06 306.45,135.51 309.98,149.07 313.34,152.99 316.55,155.69 319.62,159.57 322.57,165.02 325.41,146.73 329.45,165.77 333.3,158.56 336.93,175.82 340.41,177.81 343.71,175.03 347.9,178.02 351.86,176.83 354.7,192.55 358.3,175.95 362.59,189.98 365.84,184.6 368.95,190.76 372.65,192.86 376.18,193.8 379.53,196.6 383.37,202.63 387.02,203.86 390.49,200.83 393.8,201.75 397.47,210.45 400.98,209.77 404.31,214.93 407.95,218.33 411.41,214.13 415.12,218.9 418.65,226.41 422.0,227.15 425.56,233.4 429.29,224.43 432.83,236.52 436.2,232.62 440.0,239.99 443.61,233.6 447.04,243.45 450.57,242.06 454.16,246.13 457.81,252.14 461.28,254.39 464.8,252.91 468.34,257.5 471.9,256.93 475.47,262.29 479.04,265.5 482.6,266.95 486.14,267.36 489.8,273.09 493.42,273.11 496.87,278.67 500.4,280.07 504.01,281.09 507.56,282.77 511.15,289.5 514.68,290.11 518.23,293.29 521.8,292.95 525.29,299.01 528.87,303.47 532.44,309.03 535.99,309.74 539.52,312.41 543.02,316.69 546.62,322.33 550.18,328.66 553.74,330.02 557.3,336.35 560.86,343.08 564.4,348.66 567.93,356.15 571.52,362.66 575.07,368.03 578.62,378.57 582.17,385.58 585.7,391.72 589.28,397.96 592.83,405.0 596.38,411.81 599.95,420.14 603.5,426.72 607.05,431.39 610.59,436.4 614.15,438.44 617.72,443.23 621.25,444.3 624.8,447.17 628.37,448.4 631.93,448.72 635.47,448.96 639.02,450.12 642.57,450.53 646.13,450.29 649.69,450.84 653.24,452.24 656.79,452.51 660.34,454.74 663.9,457.55 667.46,458.54 671.01,460.81 674.56,461.95 678.11,464.64 681.67,463.92 685.22,466.06 688.77,465.71 692.32,466.25 695.88,467.09 699.43,467.65 702.98,469.29 706.54,469.8 710.09,471.74 713.64,472.27 717.2,473.48 720.76,472.97 724.31,474.75 727.86,476.05 731.42,477.12 734.97,478.69 738.52,479.48 742.07,480.75 745.63,482.16 749.18,483.98 752.74,485.21 756.29,486.88 759.84,488.5 763.4,490.94 766.95,492.62 770.5,494.52 774.05,496.78 777.61,498.95 781.16,501.52 784.72,503.95 788.27,506.33 791.82,509.24 795.38,511.79 798.93,514.94 802.48,518.4 806.04,521.61 809.59,524.7 813.14,528.04 816.7,531.49 820.25,534.76 823.8,538.1 827.36,541.26 830.91,544.94 834.46,548.43 838.02,551.08 841.57,554.26 845.13,557.16 848.68,559.94 852.23,562.62 855.79,564.9 859.34,566.8 862.89,568.17 866.45,569.11 870.0,570.0"/>
<text x="450.0" y="625" text-anchor="middle" font-family="sans-serif" font-size="16">frequency</text>
<text x="25" y="325.0" transform="rotate(-90 25 325.0)" text-anchor="middle" font-family="sans-serif" font-size="16">average periodogram</text>
</svg>
