<svg xmlns="http://www.w3.org/2000/svg" width="900" height="650" viewBox="0 0 900 650">
<rect width="100%" height="100%" fill="white"/>
<text x="450.0" y="28" text-anchor="middle" font-family="sans-serif" font-size="20">MB3_FSS average power spectrum</text>
<line x1="90" y1="570" x2="870" y2="570" stroke="black"/>
<line x1="90" y1="55" x2="90" y2="570" stroke="black"/>
<line x1="90.0" y1="570" x2="90.0" y2="575" stroke="black"/>
<text x="90.0" y="595" text-anchor="middle" font-family="sans-serif" font-size="12">10^-5</text>
<line x1="256.36874940906114" y1="570" x2="256.36874940906114" y2="575" stroke="black"/>
<text x="256.36874940906114" y="595" text-anchor="middle" font-family="sans-serif" font-size="12">10^-4</text>
<line x1="422.7374988181222" y1="570" x2="422.7374988181222" y2="575" stroke="black"/>
<text x="422.7374988181222" y="595" text-anchor="middle" font-family="sans-serif" font-size="12">10^-3</text>
<line x1="589.1062482271834" y1="570" x2="589.1062482271834" y2="575" stroke="black"/>
<text x="589.1062482271834" y="595" text-anchor="middle" font-family="sans-serif" font-size="12">10^-2</text>
<line x1="755.4749976362444" y1="570" x2="755.4749976362444" y2="575" stroke="black"/>
<text x="755.4749976362444" y="595" text-anchor="middle" font-family="sans-serif" font-size="12">10^-1</text>
<line x1="85" y1="442.56678419389726" x2="90" y2="442.56678419389726" stroke="black"/>
<text x="80" y="446.56678419389726" text-anchor="end" font-family="sans-serif" font-size="12">10^-1</text>
<line x1="85" y1="259.49006208777234" x2="90" y2="259.49006208777234" stroke="black"/>
<text x="80" y="263.49006208777234" text-anchor="end" font-family="sans-serif" font-size="12">10^0</text>
<line x1="85" y1="76.41333998164743" x2="90" y2="76.41333998164743" stroke="black"/>
<text x="80" y="80.41333998164743" text-anchor="end" font-family="sans-serif" font-size="12">10^1</text>
<polyline fill="none" stroke="#555555" stroke-width="2" stroke-dasharray="4 4" points="90.0,55.0 140.08,88.07 169.38,107.41 190.16,121.13 206.29,131.78 219.46,140.48 230.6,147.83 240.25,154.2 248.76,159.82 256.37,164.85 263.26,169.39 269.54,173.54 275.33,177.36 280.68,180.9 285.66,184.19 290.33,187.27 294.71,190.16 298.84,192.89 302.74,195.47 306.45,197.91 309.98,200.24 313.34,202.46 316.55,204.58 319.62,206.61 322.57,208.56 325.41,210.43 329.45,213.1 333.3,215.64 336.93,218.04 340.41,220.33 343.71,222.51 347.9,225.28 351.86,227.9 354.7,229.77 358.3,232.15 362.59,234.98 365.84,237.12 368.95,239.18 372.65,241.62 376.18,243.95 379.53,246.17 383.37,248.7 387.02,251.11 390.49,253.4 393.8,255.58 397.47,258.01 400.98,260.32 404.31,262.53 407.95,264.93 411.41,267.21 415.12,269.66 418.65,271.99 422.0,274.21 425.56,276.56 429.29,279.02 432.83,281.36 436.2,283.58 440.0,286.09 443.61,288.47 447.04,290.74 450.57,293.07 454.16,295.44 457.81,297.85 461.28,300.14 464.8,302.46 468.34,304.8 471.9,307.15 475.47,309.51 479.04,311.87 482.6,314.21 486.14,316.55 489.8,318.97 493.42,321.36 496.87,323.64 500.4,325.97 504.01,328.35 507.56,330.69 511.15,333.07 514.68,335.4 518.23,337.74 521.8,340.1 525.29,342.4 528.87,344.77 532.44,347.12 535.99,349.47 539.52,351.8 543.02,354.11 546.62,356.49 550.18,358.83 553.74,361.19 557.3,363.54 560.86,365.89 564.4,368.23 567.93,370.55 571.52,372.92 575.07,375.27 578.62,377.61 582.17,379.96 585.7,382.29 589.28,384.65 592.83,387.0 596.38,389.34 599.95,391.7 603.5,394.04 607.05,396.38 610.59,398.73 614.15,401.08 617.72,403.43 621.25,405.76 624.8,408.1 628.37,410.46 631.93,412.81 635.47,415.15 639.02,417.49 642.57,419.84 646.13,422.19 649.69,424.54 653.24,426.88 656.79,429.23 660.34,431.57 663.9,433.92 667.46,436.27 671.01,438.62 674.56,440.96 678.11,443.31 681.67,445.65 685.22,448.0 688.77,450.34 692.32,452.69 695.88,455.03 699.43,457.38 702.98,459.73 706.54,462.07 710.09,464.42 713.64,466.77 717.2,469.12 720.76,471.46 724.31,473.81 727.86,476.15 731.42,478.5 734.97,480.84 738.52,483.19 742.07,485.54 745.63,487.88 749.18,490.23 752.74,492.58 756.29,494.92 759.84,497.27 763.4,499.62 766.95,501.96 770.5,504.31 774.05,506.65 777.61,509.0 781.16,511.34 784.72,513.69 788.27,516.04 791.82,518.38 795.38,520.73 798.93,523.08 802.48,525.42 806.04,527.77 809.59,530.11 813.14,532.46 816.7,534.81 820.25,537.15 823.8,539.5 827.36,541.85 830.91,544.19 834.46,546.54 838.02,548.88 841.57,551.23 845.13,553.58 848.68,555.92 852.23,558.27 855.79,560.61 859.34,562.96 862.89,565.31 866.45,567.65 870.0,570.0"/>
<line x1="600" y1="73" x2="640" y2="73" stroke="#555555" stroke-width="2" stroke-dasharray="4 4"/>
<text x="648" y="77" font-family="sans-serif" font-size="12">nominal spectrum beta=0.4</text>
<polyline fill="none" stroke="#1f77b4" stroke-width="2" points="90.0,55.0 140.08,83.53 169.38,86.04 190.16,91.34 206.29,105.7 219.46,117.72 230.6,127.83 240.25,136.75 248.76,129.43 256.37,153.74 263.26,143.56 269.54,141.81 275.33,151.88 280.68,150.97 285.66,161.87 290.33,156.11 294.71,161.94 298.84,162.63 302.74,170.82 306.45,167.16 309.98,171.34 313.34,163.91 316.55,173.57 319.62,169.9 322.57,178.66 325.41,180.81 329.45,186.32 333.3,193.54 336.93,179.03 340.41,199.91 343.71,193.07 347.9,198.92 351.86,185.09 354.7,187.68 358.3,202.77 362.59,202.7 365.84,209.27 368.95,218.54 372.65,220.6 376.18,219.57 379.53,225.39 383.37,219.03 387.02,229.95 390.49,227.57 393.8,233.42 397.47,229.15 400.98,228.54 404.31,232.59 407.95,239.4 411.41,244.92 415.12,245.35 418.65,242.98 422.0,247.24 425.56,251.12 429.29,256.03 432.83,246.32 436.2,259.15 440.0,255.27 443.61,263.94 447.04,264.98 450.57,268.23 454.16,265.51 457.81,269.32 461.28,274.65 464.8,276.53 468.34,276.29 471.9,281.25 475.47,284.36 479.04,285.46 482.6,287.03 486.14,289.48 489.8,289.08 493.42,294.42 496.87,297.37 500.4,301.72 504.01,303.07 507.56,302.46 511.15,307.93 514.68,305.99 518.23,310.57 521.8,314.18 525.29,315.74 528.87,315.89 532.44,321.44 535.99,325.21 539.52,326.19 543.02,327.23 546.62,330.99 550.18,332.59 553.74,334.37 557.3,338.84 560.86,341.34 564.4,342.57 567.93,344.86 571.52,349.03 575.07,350.04 578.62,352.96 582.17,358.59 585.7,357.38 589.28,362.7 592.83,361.87 596.38,364.59 599.95,368.39 603.5,369.92 607.05,373.09 610.59,375.58 614.15,377.82 617.72,381.89 621.25,382.82 624.8,386.9 628.37,389.53 631.93,391.77 635.47,394.55 639.02,397.29 642.57,398.53 646.13,403.17 649.69,403.61 653.24,406.99 656.79,409.33 660.34,411.83 663.9,414.64 667.46,417.29 671.01,419.84 674.56,422.77 678.11,424.4 681.67,428.07 685.22,428.95 688.77,431.49 692.32,434.38 695.88,436.78 699.43,438.39 702.98,441.27 706.54,443.15 710.09,445.3 713.64,446.85 717.2,449.45 720.76,451.06 724.31,452.77 727.86,454.76 731.42,455.96 734.97,456.85 738.52,458.33 742.07,459.4 745.63,460.43 749.18,460.75 752.74,462.17 756.29,462.39 759.84,463.01 763.4,462.07 766.95,461.59 770.5,461.11 774.05,459.59 777.61,457.87 781.16,456.3 784.72,453.79 788.27,451.49 791.82,448.35 795.38,444.63 798.93,440.95 802.48,436.81 806.04,432.14 809.59,427.24 813.14,422.26 816.7,416.98 820.25,412.06 823.8,407.14 827.36,402.97 830.91,399.79 834.46,395.81 838.02,393.67 841.57,391.83 845.13,390.34 848.68,389.82 852.23,389.29 855.79,388.82 859.34,388.72 862.89,388.4 866.45,387.97 870.0,387.92"/>
<line x1="256.38" y1="55" x2="256.38" y2="570" stroke="#d62728" stroke-width="2" stroke-dasharray="7 5"/>
<line x1="600" y1="91" x2="640" y2="91" stroke="#d62728" stroke-width="2" stroke-dasharray="7 5"/>
<text x="648" y="95" font-family="sans-serif" font-size="12">finite-sample limit n/10</text>
<text x="450.0" y="625" text-anchor="middle" font-family="sans-serif" font-size="16">frequency</text>
<text x="25" y="325.0" transform="rotate(-90 25 325.0)" text-anchor="middle" font-family="sans-serif" font-size="16">average periodogram</text>
</svg>
