<svg xmlns="http://www.w3.org/2000/svg" width="900" height="650" viewBox="0 0 900 650">
<rect width="100%" height="100%" fill="white"/>
<text x="450.0" y="28" text-anchor="middle" font-family="sans-serif" font-size="20">MB3_FSS average power spectrum</text>
<line x1="90" y1="570" x2="870" y2="570" stroke="black"/>
<line x1="90" y1="55" x2="90" y2="570" stroke="black"/>
<line x1="90.0" y1="570" x2="90.0" y2="575" stroke="black"/>
<text x="90.0" y="595" text-anchor="middle" font-family="sans-serif" font-size="12">10^-5</text>
<line x1="256.36874940906114" y1="570" x2="256.36874940906114" y2="575" stroke="black"/>
<text x="256.36874940906114" y="595" text-anchor="middle" font-family="sans-serif" font-size="12">10^-4</text>
<line x1="422.7374988181222" y1="570" x2="422.7374988181222" y2="575" stroke="black"/>
<text x="422.7374988181222" y="595" text-anchor="middle" font-family="sans-serif" font-size="12">10^-3</text>
<line x1="589.1062482271834" y1="570" x2="589.1062482271834" y2="575" stroke="black"/>
<text x="589.1062482271834" y="595" text-anchor="middle" font-family="sans-serif" font-size="12">10^-2</text>
<line x1="755.4749976362444" y1="570" x2="755.4749976362444" y2="575" stroke="black"/>
<text x="755.4749976362444" y="595" text-anchor="middle" font-family="sans-serif" font-size="12">10^-1</text>
<line x1="85" y1="462.3432149630469" x2="90" y2="462.3432149630469" stroke="black"/>
<text x="80" y="466.3432149630469" text-anchor="end" font-family="sans-serif" font-size="12">10^-1</text>
<line x1="85" y1="279.26649285692196" x2="90" y2="279.26649285692196" stroke="black"/>
<text x="80" y="283.26649285692196" text-anchor="end" font-family="sans-serif" font-size="12">10^0</text>
<line x1="85" y1="96.1897707507971" x2="90" y2="96.1897707507971" stroke="black"/>
<text x="80" y="100.1897707507971" text-anchor="end" font-family="sans-serif" font-size="12">10^1</text>
<polyline fill="none" stroke="#555555" stroke-width="2" stroke-dasharray="4 4" points="90.0,55.0 140.08,88.07 169.38,107.41 190.16,121.13 206.29,131.78 219.46,140.48 230.6,147.83 240.25,154.2 248.76,159.82 256.37,164.85 263.26,169.39 269.54,173.54 275.33,177.36 280.68,180.9 285.66,184.19 290.33,187.27 294.71,190.16 298.84,192.89 302.74,195.47 306.45,197.91 309.98,200.24 313.34,202.46 316.55,204.58 319.62,206.61 322.57,208.56 325.41,210.43 329.45,213.1 333.3,215.64 336.93,218.04 340.41,220.33 343.71,222.51 347.9,225.28 351.86,227.9 354.7,229.77 358.3,232.15 362.59,234.98 365.84,237.12 368.95,239.18 372.65,241.62 376.18,243.95 379.53,246.17 383.37,248.7 387.02,251.11 390.49,253.4 393.8,255.58 397.47,258.01 400.98,260.32 404.31,262.53 407.95,264.93 411.41,267.21 415.12,269.66 418.65,271.99 422.0,274.21 425.56,276.56 429.29,279.02 432.83,281.36 436.2,283.58 440.0,286.09 443.61,288.47 447.04,290.74 450.57,293.07 454.16,295.44 457.81,297.85 461.28,300.14 464.8,302.46 468.34,304.8 471.9,307.15 475.47,309.51 479.04,311.87 482.6,314.21 486.14,316.55 489.8,318.97 493.42,321.36 496.87,323.64 500.4,325.97 504.01,328.35 507.56,330.69 511.15,333.07 514.68,335.4 518.23,337.74 521.8,340.1 525.29,342.4 528.87,344.77 532.44,347.12 535.99,349.47 539.52,351.8 543.02,354.11 546.62,356.49 550.18,358.83 553.74,361.19 557.3,363.54 560.86,365.89 564.4,368.23 567.93,370.55 571.52,372.92 575.07,375.27 578.62,377.61 582.17,379.96 585.7,382.29 589.28,384.65 592.83,387.0 596.38,389.34 599.95,391.7 603.5,394.04 607.05,396.38 610.59,398.73 614.15,401.08 617.72,403.43 621.25,405.76 624.8,408.1 628.37,410.46 631.93,412.81 635.47,415.15 639.02,417.49 642.57,419.84 646.13,422.19 649.69,424.54 653.24,426.88 656.79,429.23 660.34,431.57 663.9,433.92 667.46,436.27 671.01,438.62 674.56,440.96 678.11,443.31 681.67,445.65 685.22,448.0 688.77,450.34 692.32,452.69 695.88,455.03 699.43,457.38 702.98,459.73 706.54,462.07 710.09,464.42 713.64,466.77 717.2,469.12 720.76,471.46 724.31,473.81 727.86,476.15 731.42,478.5 734.97,480.84 738.52,483.19 742.07,485.54 745.63,487.88 749.18,490.23 752.74,492.58 756.29,494.92 759.84,497.27 763.4,499.62 766.95,501.96 770.5,504.31 774.05,506.65 777.61,509.0 781.16,511.34 784.72,513.69 788.27,516.04 791.82,518.38 795.38,520.73 798.93,523.08 802.48,525.42 806.04,527.77 809.59,530.11 813.14,532.46 816.7,534.81 820.25,537.15 823.8,539.5 827.36,541.85 830.91,544.19 834.46,546.54 838.02,548.88 841.57,551.23 845.13,553.58 848.68,555.92 852.23,558.27 855.79,560.61 859.34,562.96 862.89,565.31 866.45,567.65 870.0,570.0"/>
<line x1="600" y1="73" x2="640" y2="73" stroke="#555555" stroke-width="2" stroke-dasharray="4 4"/>
<text x="648" y="77" font-family="sans-serif" font-size="12">nominal spectrum beta=0.4</text>
<polyline fill="none" stroke="#1f77b4" stroke-width="2" points="90.0,55.0 140.08,71.83 169.38,103.87 190.16,115.17 206.29,118.5 219.46,136.09 230.6,142.47 240.25,149.46 248.76,147.04 256.37,151.11 263.26,153.11 269.54,154.49 275.33,161.51 280.68,172.6 285.66,166.85 290.33,186.13 294.71,173.88 298.84,194.78 302.74,185.85 306.45,190.38 309.98,196.56 313.34,202.64 316.55,197.17 319.62,191.71 322.57,205.48 325.41,210.22 329.45,206.87 333.3,227.86 336.93,207.07 340.41,209.54 343.71,214.82 347.9,220.7 351.86,210.21 354.7,222.72 358.3,221.64 362.59,231.84 365.84,216.51 368.95,222.9 372.65,239.16 376.18,238.74 379.53,239.63 383.37,245.43 387.02,244.65 390.49,242.25 393.8,255.51 397.47,249.41 400.98,246.51 404.31,256.54 407.95,261.38 411.41,256.86 415.12,264.11 418.65,261.31 422.0,267.14 425.56,262.25 429.29,269.67 432.83,272.09 436.2,273.72 440.0,277.83 443.61,282.05 447.04,283.63 450.57,284.34 454.16,285.27 457.81,288.12 461.28,288.99 464.8,295.05 468.34,297.21 471.9,294.99 475.47,302.62 479.04,302.63 482.6,299.75 486.14,305.36 489.8,312.98 493.42,313.08 496.87,320.01 500.4,316.14 504.01,318.71 507.56,327.41 511.15,325.46 514.68,327.32 518.23,333.47 521.8,334.52 525.29,334.43 528.87,337.59 532.44,339.8 535.99,340.79 539.52,346.81 543.02,347.71 546.62,347.86 550.18,351.37 553.74,354.78 557.3,360.18 560.86,360.49 564.4,358.94 567.93,366.41 571.52,366.56 575.07,370.51 578.62,374.81 582.17,374.6 585.7,376.81 589.28,379.25 592.83,384.07 596.38,385.71 599.95,386.19 603.5,389.1 607.05,393.56 610.59,393.72 614.15,397.77 617.72,400.82 621.25,403.25 624.8,404.54 628.37,406.99 631.93,409.77 635.47,412.59 639.02,414.91 642.57,418.76 646.13,420.61 649.69,424.06 653.24,425.5 656.79,427.39 660.34,430.65 663.9,433.65 667.46,436.82 671.01,439.18 674.56,442.34 678.11,443.42 681.67,447.13 685.22,448.5 688.77,451.0 692.32,453.71 695.88,455.5 699.43,458.0 702.98,461.3 706.54,462.98 710.09,464.65 713.64,466.76 717.2,468.43 720.76,470.34 724.31,471.4 727.86,474.03 731.42,475.43 734.97,476.13 738.52,477.81 742.07,479.07 745.63,480.42 749.18,480.94 752.74,481.82 756.29,481.67 759.84,481.64 763.4,482.3 766.95,482.27 770.5,480.93 774.05,479.74 777.61,477.61 781.16,476.0 784.72,474.07 788.27,471.31 791.82,468.66 795.38,465.12 798.93,461.43 802.48,457.26 806.04,452.64 809.59,447.72 813.14,442.32 816.7,437.22 820.25,432.08 823.8,428.18 827.36,423.33 830.91,420.0 834.46,416.49 838.02,413.64 841.57,412.07 845.13,410.69 848.68,409.59 852.23,409.16 855.79,408.69 859.34,408.53 862.89,408.29 866.45,407.92 870.0,407.83"/>
<line x1="256.38" y1="55" x2="256.38" y2="570" stroke="#d62728" stroke-width="2" stroke-dasharray="7 5"/>
<line x1="600" y1="91" x2="640" y2="91" stroke="#d62728" stroke-width="2" stroke-dasharray="7 5"/>
<text x="648" y="95" font-family="sans-serif" font-size="12">finite-sample limit n/10</text>
<text x="450.0" y="625" text-anchor="middle" font-family="sans-serif" font-size="16">frequency</text>
<text x="25" y="325.0" transform="rotate(-90 25 325.0)" text-anchor="middle" font-family="sans-serif" font-size="16">average periodogram</text>
</svg>
