<svg xmlns="http://www.w3.org/2000/svg" width="900" height="650" viewBox="0 0 900 650">
<rect width="100%" height="100%" fill="white"/>
<text x="450.0" y="28" text-anchor="middle" font-family="sans-serif" font-size="20">MB4_HawkesSymbol average autocorrelation</text>
<line x1="90" y1="570" x2="870" y2="570" stroke="black"/>
<line x1="90" y1="55" x2="90" y2="570" stroke="black"/>
<line x1="90.0" y1="570" x2="90.0" y2="575" stroke="black"/>
<text x="90.0" y="595" text-anchor="middle" font-family="sans-serif" font-size="12">10^0</text>
<line x1="256.3699736723717" y1="570" x2="256.3699736723717" y2="575" stroke="black"/>
<text x="256.3699736723717" y="595" text-anchor="middle" font-family="sans-serif" font-size="12">10^1</text>
<line x1="422.7399473447434" y1="570" x2="422.7399473447434" y2="575" stroke="black"/>
<text x="422.7399473447434" y="595" text-anchor="middle" font-family="sans-serif" font-size="12">10^2</text>
<line x1="589.1099210171151" y1="570" x2="589.1099210171151" y2="575" stroke="black"/>
<text x="589.1099210171151" y="595" text-anchor="middle" font-family="sans-serif" font-size="12">10^3</text>
<line x1="755.4798946894869" y1="570" x2="755.4798946894869" y2="575" stroke="black"/>
<text x="755.4798946894869" y="595" text-anchor="middle" font-family="sans-serif" font-size="12">10^4</text>
<line x1="85" y1="500.86617132247613" x2="90" y2="500.86617132247613" stroke="black"/>
<text x="80" y="504.86617132247613" text-anchor="end" font-family="sans-serif" font-size="12">10^-5</text>
<line x1="85" y1="272.5786584868177" x2="90" y2="272.5786584868177" stroke="black"/>
<text x="80" y="276.5786584868177" text-anchor="end" font-family="sans-serif" font-size="12">10^-4</text>
<polyline fill="none" stroke="#555555" stroke-width="2" stroke-dasharray="4 4" points="90.0,141.88 140.08,169.37 169.38,185.45 190.16,196.86 206.29,205.71 219.46,212.94 230.6,219.05 240.25,224.35 248.76,229.02 256.37,233.2 263.26,236.98 269.54,240.43 275.33,243.6 280.68,246.54 290.33,251.84 294.71,254.24 298.84,256.51 302.75,258.65 306.45,260.69 313.34,264.47 316.55,266.23 322.58,269.54 325.41,271.09 329.45,273.31 333.3,275.42 338.12,278.07 340.41,279.33 342.64,280.55 347.9,283.44 352.83,286.14 354.71,287.17 359.19,289.63 362.59,291.5 365.84,293.28 368.19,294.57 373.37,297.42 375.49,298.58 379.54,300.8 383.38,302.91 387.61,305.23 390.49,306.81 394.34,308.93 397.99,310.93 401.47,312.84 404.47,314.49 407.8,316.32 411.55,318.37 414.92,320.22 418.77,322.34 422.25,324.24 425.57,326.07 429.28,328.1 432.62,329.94 435.76,331.66 439.72,333.83 444.06,336.22 446.7,337.67 450.41,339.7 454.16,341.76 457.84,343.78 461.0,345.51 465.27,347.86 468.25,349.49 472.0,351.55 475.17,353.29 479.13,355.47 482.6,357.37 486.29,359.39 490.08,361.48 494.04,363.65 496.73,365.12 500.65,367.28 504.01,369.12 507.63,371.11 510.98,372.94 514.24,374.74 518.01,376.81 521.95,378.97 524.95,380.62 528.91,382.79 532.43,384.72 535.78,386.56 539.32,388.5 543.07,390.56 546.47,392.43 550.17,394.46 553.95,396.53 557.4,398.43 560.9,400.35 564.42,402.28 568.12,404.31 571.48,406.15 574.94,408.05 578.52,410.02 582.08,411.97 585.63,413.92 589.17,415.86 592.66,417.77 596.43,419.85 600.11,421.87 603.48,423.71 606.96,425.63 610.76,427.71 614.29,429.65 617.75,431.55 621.29,433.49 624.82,435.43 628.36,437.37 632.0,439.37 635.39,441.23 638.83,443.12 642.46,445.11 646.15,447.13 649.69,449.08 653.37,451.1 656.61,452.88 660.42,454.97 663.88,456.87 667.56,458.89 670.96,460.76 674.69,462.8 678.16,464.71 681.73,466.66 685.3,468.62 688.74,470.51 692.32,472.47 695.9,474.44 699.35,476.34 702.94,478.3 706.58,480.3 710.2,482.29 713.7,484.21 717.21,486.14 720.67,488.04 724.3,490.03 727.87,491.99 731.41,493.93 734.91,495.85 738.46,497.8 742.14,499.82 745.65,501.75 749.18,503.68 752.72,505.63 756.37,507.63 759.9,509.57 763.36,511.47 766.98,513.45 770.53,515.4 774.01,517.31 777.64,519.31 781.19,521.26 784.71,523.19 788.29,525.15 791.83,527.09 795.35,529.02 798.87,530.96 802.49,532.95 806.06,534.91 809.59,536.84 813.15,538.8 816.69,540.74 820.23,542.68 823.83,544.66 827.36,546.6 830.92,548.55 834.42,550.47 837.98,552.42 841.59,554.41 845.14,556.35 848.69,558.31 852.23,560.25 855.8,562.21 859.36,564.16 862.92,566.11 866.49,568.08 870.0,570.0"/>
<line x1="600" y1="73" x2="640" y2="73" stroke="#555555" stroke-width="2" stroke-dasharray="4 4"/>
<text x="648" y="77" font-family="sans-serif" font-size="12">nominal ACF beta=0.4</text>
<polyline fill="none" stroke="#1f77b4" stroke-width="2" points="90.0,141.88 140.08,192.82 169.38,64.48 190.16,88.09 206.29,68.01 219.46,92.31 230.6,164.34 240.25,215.47 248.76,242.46 256.37,461.7 263.26,70.82 269.54,129.4 275.33,109.54 280.68,55.0 290.33,442.47 294.71,203.48 298.84,215.34 302.75,61.44 306.45,190.83 313.34,146.99 316.55,73.67 322.58,88.59 325.41,181.07 329.45,157.67 333.3,228.68 338.12,134.9 340.41,189.36 342.64,168.21 347.9,192.1 352.83,382.95 354.71,109.91 359.19,136.24 362.59,435.61 365.84,280.04 368.19,270.72 373.37,176.75 375.49,126.87 379.54,94.8 383.38,171.21 387.61,133.65 390.49,129.79 394.34,191.46 397.99,144.33 401.47,205.88 404.47,156.61 407.8,144.23 411.55,166.12 414.92,164.77 418.77,206.75 422.25,196.74 425.57,201.0 429.28,170.84 432.62,175.97 435.76,122.52 439.72,149.54 444.06,148.04 446.7,190.42 450.41,179.32 454.16,123.1 457.84,202.35 461.0,191.88 465.27,175.27 468.25,190.63 472.0,153.96 475.17,181.33 479.13,203.09 482.6,177.06 486.29,212.35 490.08,152.57 494.04,134.3 496.73,188.93 500.65,237.64 504.01,188.92 507.63,179.63 510.98,166.42 514.24,188.29 518.01,195.15 521.95,181.74 524.95,226.02 528.91,180.33 532.43,170.45 535.78,177.01 539.32,187.29 543.07,167.4 546.47,210.07 550.17,169.97 553.95,150.18 557.4,177.47 560.9,205.01 564.42,192.28 568.12,188.89 571.48,156.15 574.94,178.2 578.52,174.89 582.08,163.07 585.63,165.23 589.17,194.39 592.66,192.41 596.43,177.66 600.11,191.12 603.48,186.53 606.96,183.52 610.76,174.85 614.29,177.42 617.75,189.87 621.29,192.05 624.82,165.63 628.36,183.07 632.0,184.45 635.39,177.69 638.83,171.27 642.46,176.82 646.15,192.69 649.69,186.8 653.37,170.1 656.61,170.3 660.42,197.93 663.88,169.1 667.56,193.13 670.96,179.27 674.69,191.22 678.16,170.35 681.73,185.07 685.3,182.9 688.74,187.48 692.32,196.28 695.9,187.91 699.35,183.35 702.94,188.53 706.58,194.17 710.2,185.66 713.7,180.0 717.21,177.22 720.67,182.6 724.3,177.3 727.87,180.53 731.41,185.6 734.91,183.54 738.46,173.32 742.14,181.71 745.65,188.33 749.18,175.8 752.72,182.07 756.37,172.8 759.9,186.78 763.36,186.5 766.98,180.19 770.53,189.81 774.01,177.29 777.64,183.01 781.19,177.96 784.71,183.75 788.29,175.95 791.83,179.96 795.35,178.21 798.87,177.77 802.49,177.73 806.06,176.61 809.59,174.86 813.15,178.08 816.69,174.27 820.23,175.35 823.83,180.59 827.36,172.82 830.92,171.24 834.42,177.65 837.98,173.16 841.59,173.73 845.14,176.32 848.69,170.52 852.23,168.68 855.8,168.14 859.36,167.09 862.92,163.76 866.49,160.28 870.0,163.31"/>
<line x1="755.47" y1="55" x2="755.47" y2="570" stroke="#d62728" stroke-width="2" stroke-dasharray="7 5"/>
<line x1="600" y1="91" x2="640" y2="91" stroke="#d62728" stroke-width="2" stroke-dasharray="7 5"/>
<text x="648" y="95" font-family="sans-serif" font-size="12">finite-sample limit n/10</text>
<line x1="805.56" y1="55" x2="805.56" y2="570" stroke="#9467bd" stroke-width="2" stroke-dasharray="7 5"/>
<line x1="600" y1="109" x2="640" y2="109" stroke="#9467bd" stroke-width="2" stroke-dasharray="7 5"/>
<text x="648" y="113" font-family="sans-serif" font-size="12">generator memory limit</text>
<text x="450.0" y="625" text-anchor="middle" font-family="sans-serif" font-size="16">lag</text>
<text x="25" y="325.0" transform="rotate(-90 25 325.0)" text-anchor="middle" font-family="sans-serif" font-size="16">positive average autocorrelation</text>
</svg>
