<svg xmlns="http://www.w3.org/2000/svg" width="900" height="650" viewBox="0 0 900 650">
<rect width="100%" height="100%" fill="white"/>
<text x="450.0" y="28" text-anchor="middle" font-family="sans-serif" font-size="20">PB2_LGCM average autocorrelation</text>
<line x1="90" y1="570" x2="870" y2="570" stroke="black"/>
<line x1="90" y1="55" x2="90" y2="570" stroke="black"/>
<line x1="90.0" y1="570" x2="90.0" y2="575" stroke="black"/>
<text x="90.0" y="595" text-anchor="middle" font-family="sans-serif" font-size="12">10^0</text>
<line x1="256.2451163899827" y1="570" x2="256.2451163899827" y2="575" stroke="black"/>
<text x="256.2451163899827" y="595" text-anchor="middle" font-family="sans-serif" font-size="12">10^1</text>
<line x1="422.49023277996537" y1="570" x2="422.49023277996537" y2="575" stroke="black"/>
<text x="422.49023277996537" y="595" text-anchor="middle" font-family="sans-serif" font-size="12">10^2</text>
<line x1="588.7353491699481" y1="570" x2="588.7353491699481" y2="575" stroke="black"/>
<text x="588.7353491699481" y="595" text-anchor="middle" font-family="sans-serif" font-size="12">10^3</text>
<line x1="754.9804655599307" y1="570" x2="754.9804655599307" y2="575" stroke="black"/>
<text x="754.9804655599307" y="595" text-anchor="middle" font-family="sans-serif" font-size="12">10^4</text>
<line x1="85" y1="528.0601080772525" x2="90" y2="528.0601080772525" stroke="black"/>
<text x="80" y="532.0601080772525" text-anchor="end" font-family="sans-serif" font-size="12">10^-4</text>
<line x1="85" y1="388.36171557775214" x2="90" y2="388.36171557775214" stroke="black"/>
<text x="80" y="392.36171557775214" text-anchor="end" font-family="sans-serif" font-size="12">10^-3</text>
<line x1="85" y1="248.66332307825184" x2="90" y2="248.66332307825184" stroke="black"/>
<text x="80" y="252.66332307825184" text-anchor="end" font-family="sans-serif" font-size="12">10^-2</text>
<line x1="85" y1="108.96493057875148" x2="90" y2="108.96493057875148" stroke="black"/>
<text x="80" y="112.96493057875148" text-anchor="end" font-family="sans-serif" font-size="12">10^-1</text>
<polyline fill="none" stroke="#555555" stroke-width="2" stroke-dasharray="4 4" points="90.0,55.0 140.04,71.82 169.32,81.66 190.09,88.64 206.2,94.06 219.36,98.48 230.49,102.22 240.13,105.46 248.64,108.32 256.25,110.88 263.13,113.19 269.41,115.3 275.19,117.25 280.54,119.04 285.52,120.72 290.18,122.29 294.56,123.76 298.68,125.14 302.59,126.46 306.29,127.7 309.81,128.88 313.17,130.01 316.38,131.09 319.45,132.13 322.4,133.12 325.23,134.07 329.27,135.42 333.12,136.72 336.75,137.94 340.22,139.11 343.52,140.22 347.71,141.62 350.71,142.63 353.57,143.59 357.23,144.82 360.71,145.99 364.83,147.38 368.74,148.69 371.72,149.69 375.27,150.89 379.32,152.25 383.15,153.54 386.21,154.56 389.69,155.73 393.57,157.04 396.73,158.1 400.25,159.28 404.08,160.57 407.71,161.79 411.17,162.95 414.48,164.06 418.01,165.25 421.76,166.51 425.32,167.71 428.71,168.85 432.26,170.04 435.95,171.28 439.46,172.46 443.07,173.68 446.52,174.84 450.05,176.02 453.66,177.24 457.09,178.39 460.58,179.56 464.11,180.75 467.68,181.95 471.25,183.15 474.84,184.35 478.42,185.56 481.99,186.76 485.54,187.95 489.07,189.14 492.57,190.32 496.17,191.53 499.73,192.72 503.23,193.9 506.8,195.1 510.41,196.31 513.96,197.5 517.43,198.67 520.93,199.85 524.53,201.06 528.13,202.27 531.64,203.45 535.21,204.65 538.76,205.84 542.27,207.02 545.83,208.22 549.4,209.42 552.92,210.6 556.45,211.79 560.03,212.99 563.59,214.19 567.13,215.38 570.65,216.56 574.18,217.75 577.75,218.95 581.32,220.15 584.83,221.33 588.37,222.51 591.94,223.72 595.51,224.92 599.04,226.1 602.58,227.29 606.13,228.48 609.67,229.67 613.23,230.87 616.76,232.06 620.3,233.25 623.85,234.44 627.4,235.63 630.94,236.83 634.5,238.02 638.05,239.21 641.59,240.4 645.14,241.6 648.69,242.79 652.24,243.98 655.79,245.18 659.34,246.37 662.89,247.56 666.43,248.75 669.97,249.94 673.51,251.13 677.06,252.33 680.62,253.52 684.17,254.72 687.72,255.91 691.27,257.1 694.81,258.29 698.36,259.48 701.91,260.68 705.45,261.87 708.99,263.06 712.54,264.25 716.09,265.45 719.64,266.64 723.18,267.83 726.73,269.02 730.28,270.21 733.83,271.41 737.38,272.6 740.93,273.79 744.46,274.98 748.05,276.19 751.57,277.37 754.79,278.45 758.9,279.83 762.2,280.94 765.68,282.11 769.34,283.34 772.66,284.46 776.62,285.79 779.61,286.79 783.13,287.98 786.88,289.24 790.99,290.62 794.38,291.76 797.6,292.84 801.31,294.09 805.11,295.37 807.86,296.29 812.19,297.75 815.68,298.92 819.84,300.32 822.5,301.21 824.78,301.98 830.11,303.77 834.08,305.11 837.17,306.14 864.56,315.35 870.0,317.18"/>
<line x1="600" y1="73" x2="640" y2="73" stroke="#555555" stroke-width="2" stroke-dasharray="4 4"/>
<text x="648" y="77" font-family="sans-serif" font-size="12">nominal ACF beta=0.4</text>
<polyline fill="none" stroke="#1f77b4" stroke-width="2" points="90.0,55.0 140.04,79.81 169.32,89.68 190.09,98.61 206.2,104.41 219.36,109.7 230.49,113.84 240.13,117.75 248.64,120.92 256.25,123.91 263.13,126.59 269.41,128.82 275.19,130.98 280.54,133.04 285.52,134.87 290.18,136.85 294.56,138.37 298.68,139.8 302.59,141.8 306.29,143.02 309.81,144.68 313.17,145.75 316.38,146.76 319.45,147.5 322.4,148.89 325.23,149.83 329.27,151.3 333.12,152.89 336.75,154.3 340.22,156.34 343.52,156.92 347.71,158.76 350.71,160.26 353.57,161.52 357.23,162.42 360.71,163.4 364.83,165.07 368.74,166.67 371.72,167.6 375.27,169.81 379.32,170.73 383.15,171.74 386.21,173.79 389.69,174.71 393.57,176.33 396.73,178.11 400.25,179.15 404.08,181.15 407.71,182.61 411.17,183.76 414.48,185.34 418.01,186.18 421.76,188.14 425.32,189.48 428.71,190.11 432.26,191.24 435.95,192.51 439.46,194.15 443.07,195.73 446.52,197.24 450.05,198.87 453.66,201.43 457.09,202.89 460.58,203.36 464.11,204.58 467.68,207.04 471.25,207.27 474.84,210.91 478.42,212.53 481.99,212.91 485.54,215.76 489.07,216.5 492.57,217.08 496.17,219.6 499.73,221.45 503.23,222.35 506.8,224.61 510.41,225.93 513.96,227.77 517.43,228.41 520.93,230.7 524.53,233.16 528.13,234.92 531.64,235.39 535.21,237.67 538.76,242.1 542.27,242.73 545.83,243.78 549.4,246.13 552.92,246.14 556.45,247.68 560.03,249.81 563.59,252.23 567.13,253.7 570.65,254.95 574.18,256.32 577.75,258.94 581.32,261.01 584.83,261.44 588.37,262.72 591.94,265.35 595.51,264.44 599.04,267.1 602.58,271.49 606.13,272.41 609.67,277.32 613.23,278.42 616.76,278.49 620.3,279.35 623.85,279.1 627.4,281.1 630.94,285.07 634.5,287.06 638.05,288.71 641.59,294.7 645.14,295.63 648.69,301.77 652.24,304.52 655.79,306.44 659.34,303.45 662.89,307.47 666.43,314.17 669.97,317.23 673.51,315.55 677.06,316.07 680.62,317.49 684.17,320.55 687.72,323.12 691.27,329.47 694.81,334.34 698.36,340.85 701.91,342.49 705.45,357.39 708.99,365.21 712.54,372.55 716.09,374.01 719.64,365.08 723.18,367.91 726.73,373.87 730.28,379.59 733.83,377.49 737.38,388.34 740.93,392.01 744.46,418.17 748.05,421.78 751.57,421.23 754.79,445.99 758.9,472.88 762.2,433.74 765.68,419.37 769.34,437.6 772.66,438.7 776.62,450.85 779.61,448.45 783.13,498.08 786.88,514.96 790.99,486.52 794.38,474.44 797.6,481.69 801.31,489.44 805.11,513.57 807.86,492.55 812.19,543.19 815.68,527.12 819.84,482.76 822.5,516.36 824.78,522.41 830.11,503.72 834.08,505.63 837.17,570.0 864.56,448.97 870.0,484.22"/>
<line x1="754.97" y1="55" x2="754.97" y2="570" stroke="#d62728" stroke-width="2" stroke-dasharray="7 5"/>
<line x1="600" y1="91" x2="640" y2="91" stroke="#d62728" stroke-width="2" stroke-dasharray="7 5"/>
<text x="648" y="95" font-family="sans-serif" font-size="12">finite-sample limit n/10</text>
<text x="450.0" y="625" text-anchor="middle" font-family="sans-serif" font-size="16">lag</text>
<text x="25" y="325.0" transform="rotate(-90 25 325.0)" text-anchor="middle" font-family="sans-serif" font-size="16">positive average autocorrelation</text>
</svg>
