<svg xmlns="http://www.w3.org/2000/svg" width="900" height="650" viewBox="0 0 900 650">
<rect width="100%" height="100%" fill="white"/>
<text x="450.0" y="28" text-anchor="middle" font-family="sans-serif" font-size="20">PB3_WaveletMarkov_Haar average autocorrelation</text>
<line x1="90" y1="570" x2="870" y2="570" stroke="black"/>
<line x1="90" y1="55" x2="90" y2="570" stroke="black"/>
<line x1="90.0" y1="570" x2="90.0" y2="575" stroke="black"/>
<text x="90.0" y="595" text-anchor="middle" font-family="sans-serif" font-size="12">10^0</text>
<line x1="269.51025493887914" y1="570" x2="269.51025493887914" y2="575" stroke="black"/>
<text x="269.51025493887914" y="595" text-anchor="middle" font-family="sans-serif" font-size="12">10^1</text>
<line x1="449.02050987775823" y1="570" x2="449.02050987775823" y2="575" stroke="black"/>
<text x="449.02050987775823" y="595" text-anchor="middle" font-family="sans-serif" font-size="12">10^2</text>
<line x1="628.5307648166374" y1="570" x2="628.5307648166374" y2="575" stroke="black"/>
<text x="628.5307648166374" y="595" text-anchor="middle" font-family="sans-serif" font-size="12">10^3</text>
<line x1="808.0410197555165" y1="570" x2="808.0410197555165" y2="575" stroke="black"/>
<text x="808.0410197555165" y="595" text-anchor="middle" font-family="sans-serif" font-size="12">10^4</text>
<line x1="85" y1="443.4157398725386" x2="90" y2="443.4157398725386" stroke="black"/>
<text x="80" y="447.4157398725386" text-anchor="end" font-family="sans-serif" font-size="12">10^-3</text>
<line x1="85" y1="303.41853059742436" x2="90" y2="303.41853059742436" stroke="black"/>
<text x="80" y="307.41853059742436" text-anchor="end" font-family="sans-serif" font-size="12">10^-2</text>
<line x1="85" y1="163.42132132231006" x2="90" y2="163.42132132231006" stroke="black"/>
<text x="80" y="167.42132132231006" text-anchor="end" font-family="sans-serif" font-size="12">10^-1</text>
<polyline fill="none" stroke="#555555" stroke-width="2" stroke-dasharray="4 4" points="90.0,55.0 144.04,71.86 175.65,81.72 198.08,88.71 215.47,94.14 229.69,98.58 241.7,102.32 252.11,105.57 261.3,108.44 269.51,111.0 276.94,113.32 283.72,115.43 289.96,117.38 295.74,119.18 301.12,120.86 306.15,122.43 310.88,123.9 315.33,125.29 319.55,126.61 323.55,127.86 327.35,129.04 330.98,130.17 334.44,131.26 337.76,132.29 340.94,133.28 344.0,134.24 346.94,135.15 351.15,136.47 355.16,137.72 357.71,138.51 361.39,139.66 364.92,140.76 368.27,141.81 372.55,143.14 376.6,144.41 379.51,145.31 382.31,146.19 385.89,147.3 390.15,148.63 394.2,149.89 397.28,150.86 400.97,152.01 404.51,153.11 407.88,154.16 411.75,155.37 415.43,156.52 418.95,157.62 422.31,158.67 425.54,159.67 429.14,160.8 433.07,162.02 436.35,163.04 439.49,164.02 443.35,165.23 447.04,166.38 450.56,167.48 454.29,168.64 457.85,169.75 461.25,170.81 464.83,171.93 468.26,173.0 471.83,174.11 475.52,175.27 479.05,176.37 482.68,177.5 486.14,178.58 489.69,179.68 493.31,180.81 496.76,181.89 500.27,182.99 503.83,184.1 507.41,185.21 511.01,186.34 514.46,187.41 517.91,188.49 521.53,189.62 525.14,190.74 528.72,191.86 532.29,192.97 535.82,194.08 539.33,195.17 542.8,196.25 546.34,197.36 549.95,198.48 553.5,199.59 557.09,200.71 560.71,201.84 564.25,202.95 567.82,204.06 571.3,205.14 574.8,206.23 578.36,207.35 581.92,208.46 585.52,209.58 589.09,210.69 592.63,211.8 596.19,212.91 599.71,214.01 603.24,215.11 606.82,216.22 610.39,217.34 613.95,218.45 617.49,219.55 621.0,220.65 624.57,221.76 628.13,222.87 631.69,223.98 635.24,225.09 638.77,226.19 642.35,227.31 645.89,228.41 649.43,229.52 652.98,230.62 656.54,231.74 660.11,232.85 663.64,233.95 667.19,235.06 670.74,236.16 674.28,237.27 677.84,238.38 681.4,239.49 684.96,240.6 688.51,241.71 692.06,242.81 695.61,243.92 699.17,245.03 702.73,246.14 706.28,247.25 709.82,248.35 713.38,249.46 716.93,250.57 720.47,251.68 724.02,252.79 727.58,253.9 731.14,255.01 734.69,256.11 738.23,257.22 741.78,258.33 745.34,259.44 748.89,260.54 752.45,261.65 756.0,262.76 759.55,263.87 763.1,264.98 766.66,266.09 770.2,267.19 773.76,268.3 777.31,269.41 780.86,270.52 784.41,271.62 787.97,272.73 791.51,273.84 795.07,274.95 798.62,276.06 802.17,277.16 805.72,278.27 809.28,279.38 812.83,280.49 816.38,281.6 819.93,282.7 823.48,283.81 827.04,284.92 830.59,286.03 834.14,287.14 837.69,288.24 841.24,289.35 843.36,290.01 858.89,294.86 862.54,296.0 867.65,297.59 870.0,298.32"/>
<line x1="600" y1="73" x2="640" y2="73" stroke="#555555" stroke-width="2" stroke-dasharray="4 4"/>
<text x="648" y="77" font-family="sans-serif" font-size="12">nominal power-law beta=0.4</text>
<polyline fill="none" stroke="#1f77b4" stroke-width="2" points="90.0,55.0 144.04,72.66 175.65,81.05 198.08,85.08 215.47,87.11 229.69,88.32 241.7,89.3 252.11,90.16 261.3,90.71 269.51,91.24 276.94,91.75 283.72,92.26 289.96,92.78 295.74,93.28 301.12,93.84 306.15,94.35 310.88,94.7 315.33,95.02 319.55,95.33 323.55,95.63 327.35,95.94 330.98,96.33 334.44,96.64 337.76,96.91 340.94,97.22 344.0,97.59 346.94,97.87 351.15,98.38 355.16,99.0 357.71,99.3 361.39,99.75 364.92,100.02 368.27,100.32 372.55,100.67 376.6,101.09 379.51,101.33 382.31,101.56 385.89,102.0 390.15,102.52 394.2,102.92 397.28,103.34 400.97,103.85 404.51,104.33 407.88,104.84 411.75,105.38 415.43,105.88 418.95,106.33 422.31,106.65 425.54,106.97 429.14,107.31 433.07,107.88 436.35,108.24 439.49,108.64 443.35,109.07 447.04,109.69 450.56,110.17 454.29,110.83 457.85,111.45 461.25,112.16 464.83,112.8 468.26,113.54 471.83,114.08 475.52,114.54 479.05,114.89 482.68,115.34 486.14,115.8 489.69,116.34 493.31,117.01 496.76,117.51 500.27,118.02 503.83,118.72 507.41,119.34 511.01,120.16 514.46,120.94 517.91,121.76 521.53,122.68 525.14,123.16 528.72,123.7 532.29,124.18 535.82,124.8 539.33,125.32 542.8,126.03 546.34,126.75 549.95,127.46 553.5,128.14 557.09,128.93 560.71,129.86 564.25,130.69 567.82,131.82 571.3,132.61 574.8,133.66 578.36,134.48 581.92,135.09 585.52,135.7 589.09,136.48 592.63,137.18 596.19,138.02 599.71,138.77 603.24,139.67 606.82,140.45 610.39,141.21 613.95,142.4 617.49,143.75 621.0,144.96 624.57,146.5 628.13,147.7 631.69,149.02 635.24,149.75 638.77,150.5 642.35,151.4 645.89,152.0 649.43,152.98 652.98,154.3 656.54,155.6 660.11,156.78 663.64,158.18 667.19,159.72 670.74,160.96 674.28,162.74 677.84,165.12 681.4,167.0 684.96,169.24 688.51,170.33 692.06,171.52 695.61,172.78 699.17,174.22 702.73,175.59 706.28,176.71 709.82,177.14 713.38,178.23 716.93,180.33 720.47,182.08 724.02,183.92 727.58,185.73 731.14,188.29 734.69,191.33 738.23,194.36 741.78,196.61 745.34,198.72 748.89,199.85 752.45,202.43 756.0,204.73 759.55,205.75 763.1,208.74 766.66,211.99 770.2,214.3 773.76,217.02 777.31,219.51 780.86,221.59 784.41,224.44 787.97,228.6 791.51,233.7 795.07,239.55 798.62,243.4 802.17,247.8 805.72,253.16 809.28,251.25 812.83,254.73 816.38,258.68 819.93,264.2 823.48,271.49 827.04,284.08 830.59,292.07 834.14,308.2 837.69,335.84 841.24,377.31 843.36,470.69 858.89,570.0 862.54,510.75 867.65,508.11 870.0,537.46"/>
<line x1="808.03" y1="55" x2="808.03" y2="570" stroke="#d62728" stroke-width="2" stroke-dasharray="7 5"/>
<line x1="600" y1="91" x2="640" y2="91" stroke="#d62728" stroke-width="2" stroke-dasharray="7 5"/>
<text x="648" y="95" font-family="sans-serif" font-size="12">finite-sample limit n/10</text>
<text x="450.0" y="625" text-anchor="middle" font-family="sans-serif" font-size="16">lag</text>
<text x="25" y="325.0" transform="rotate(-90 25 325.0)" text-anchor="middle" font-family="sans-serif" font-size="16">positive average autocorrelation</text>
</svg>
